<?xml version="1.0" standalone="no"?>
<!DOCTYPE svg PUBLIC "-//W3C//DTD SVG 20010904//EN"
 "http://www.w3.org/TR/2001/REC-SVG-20010904/DTD/svg10.dtd">
<svg version="1.0" xmlns="http://www.w3.org/2000/svg"
 width="261.000000pt" height="261.000000pt" viewBox="0 0 261.000000 261.000000"
 preserveAspectRatio="xMidYMid meet">
<metadata>
Created by potrace 1.14, written by Peter Selinger 2001-2017
</metadata>
<g transform="translate(0.000000,261.000000) scale(0.100000,-0.100000)"
fill="#000000" stroke="none">
<path d="M0 2345 l0 -266 22 12 c13 7 57 38 98 69 41 31 87 64 103 73 15 10
27 25 27 35 -1 9 -20 89 -44 177 l-43 160 -81 3 -82 3 0 -266z"/>
<path d="M611 2578 c6 -18 12 -40 14 -48 18 -80 29 -121 41 -157 7 -23 15 -52
18 -65 11 -57 39 -154 47 -164 5 -6 6 -14 2 -17 -3 -4 0 -13 7 -22 7 -8 10
-15 7 -15 -3 0 -1 -15 4 -32 11 -36 12 -42 28 -109 6 -26 15 -58 21 -73 5 -15
12 -37 14 -49 2 -12 7 -34 11 -48 6 -24 1 -31 -37 -57 -24 -16 -93 -67 -155
-113 -61 -46 -125 -92 -142 -102 l-30 -18 -14 33 c-8 18 -17 49 -20 68 -14 71
-27 79 -122 77 -47 -1 -85 0 -85 3 0 3 -50 7 -110 9 l-110 3 0 -836 0 -836
995 0 c561 0 995 4 995 9 0 5 -7 28 -16 52 -8 24 -17 51 -19 59 -8 40 -38 136
-44 140 -3 3 -6 10 -7 15 -1 32 -18 85 -26 85 -5 0 -7 4 -4 8 6 10 -39 159
-54 177 -7 8 -37 12 -91 12 -60 0 -83 3 -89 14 -6 8 -6 15 0 17 5 2 16 27 26
55 9 29 20 57 24 62 4 6 13 28 20 50 7 22 17 46 23 52 5 7 6 13 2 13 -4 0 -3
6 2 13 5 6 22 46 38 87 l28 76 404 -2 403 -2 0 62 0 62 -42 2 c-53 3 -45 3
-211 2 -76 -1 -141 1 -144 4 -3 3 -14 1 -24 -4 -11 -6 -20 -6 -24 -1 -3 5 -18
6 -33 3 -15 -4 -40 -6 -57 -5 -71 6 -112 6 -123 0 -6 -4 -14 -3 -17 3 -5 7
-11 8 -19 1 -7 -6 -18 -6 -26 -1 -7 4 -24 4 -37 -1 -12 -5 -23 -5 -23 -1 0 4
-20 7 -44 7 -54 0 -78 -20 -95 -78 -7 -23 -17 -47 -23 -54 -5 -7 -7 -17 -3
-23 3 -5 3 -10 -2 -10 -9 0 -34 -60 -55 -128 -7 -23 -16 -42 -19 -42 -4 0 -10
-12 -14 -27 -3 -15 -16 -48 -27 -72 -11 -25 -21 -55 -22 -68 0 -12 -7 -25 -15
-28 -7 -3 -11 -12 -8 -20 4 -8 1 -12 -6 -10 -7 2 -58 6 -115 9 -57 2 -105 6
-107 8 -1 1 -13 37 -25 78 -12 41 -26 80 -31 86 -5 6 -6 14 -2 18 4 4 2 11 -5
15 -9 5 2 20 35 47 44 36 62 49 128 94 13 8 38 27 56 41 37 28 190 139 227
164 21 15 30 54 15 69 -4 3 -8 12 -9 19 -2 7 -5 23 -8 37 -3 14 -9 40 -12 58
-3 17 -10 32 -16 32 -5 0 -7 4 -3 10 3 5 -6 50 -20 99 -14 49 -25 91 -25 93 0
2 391 1 490 -1 16 -1 61 -30 122 -78 53 -43 136 -109 184 -148 49 -38 108 -87
131 -109 24 -21 43 -35 43 -30 0 5 5 1 11 -8 5 -10 19 -22 29 -28 19 -10 20
-7 20 64 l0 74 -72 58 c-40 31 -94 76 -120 98 -25 23 -52 46 -60 51 -7 6 -28
22 -45 37 l-33 26 33 21 c17 11 70 48 117 81 47 33 106 75 132 93 l48 32 0
413 0 412 -639 0 c-575 0 -639 -2 -645 -16 -3 -9 -4 -20 0 -25 3 -5 1 -9 -3
-9 -12 0 -45 -79 -38 -91 4 -5 2 -9 -3 -9 -6 0 -13 -11 -16 -25 -3 -13 -11
-36 -16 -51 l-10 -26 -34 26 c-19 14 -39 26 -45 26 -6 0 -11 4 -11 9 0 4 -19
21 -42 36 -24 15 -82 56 -129 91 l-86 64 -146 0 -146 0 10 -32z m172 -39 c12
-11 47 -37 77 -57 30 -19 107 -75 170 -122 63 -47 143 -105 177 -128 34 -23
65 -47 68 -52 9 -14 45 -137 52 -175 3 -16 10 -36 15 -42 6 -7 8 -13 5 -13 -3
0 -1 -15 4 -32 6 -18 12 -45 14 -61 2 -15 8 -33 12 -40 4 -6 9 -23 11 -37 1
-14 7 -38 12 -54 6 -16 10 -33 10 -37 0 -5 -86 -8 -190 -6 -173 2 -192 1 -207
-15 -21 -24 -75 -157 -67 -169 3 -5 1 -9 -5 -9 -5 0 -19 -26 -30 -57 -12 -32
-26 -66 -31 -76 -6 -10 -8 -22 -5 -27 4 -6 1 -10 -4 -10 -6 0 -11 -6 -11 -12
0 -7 -6 -25 -14 -40 -8 -14 -19 -43 -26 -65 -7 -21 -17 -43 -22 -50 -5 -7 -8
-16 -5 -20 5 -8 -72 -7 -143 1 -19 2 -47 4 -61 5 -25 1 -28 8 -58 109 l-32
107 33 27 c18 15 62 48 98 73 36 25 92 66 125 91 33 24 95 70 138 100 42 31
77 62 77 69 0 8 -11 56 -26 107 -14 51 -27 100 -29 108 -3 13 -51 188 -59 215
-1 6 -6 28 -11 50 -4 22 -10 45 -14 50 -3 6 -6 15 -7 20 -2 14 -35 147 -39
163 -3 7 -5 14 -5 17 0 3 -7 23 -15 46 -16 43 -19 69 -10 69 3 0 16 -9 28 -21z
m1415 -51 c-11 -35 -26 -76 -33 -93 -7 -16 -27 -70 -45 -120 -18 -49 -48 -133
-66 -185 -19 -52 -41 -108 -48 -125 -8 -16 -18 -43 -22 -60 -4 -16 -13 -45
-21 -63 l-14 -33 -38 30 c-22 17 -44 31 -50 31 -6 0 -11 4 -11 8 0 4 -23 26
-52 47 -29 22 -73 57 -98 78 -25 20 -49 41 -55 45 -5 4 -25 19 -43 34 l-33 27
28 15 c15 8 43 28 61 45 17 16 32 28 32 25 0 -7 135 87 200 139 8 7 19 13 23
14 8 1 41 24 224 156 36 26 69 47 74 47 4 0 -1 -28 -13 -62z m-1792 -1265 c9
-32 22 -61 28 -65 15 -10 10 -11 -111 -12 -57 0 -103 2 -103 6 0 3 24 22 53
41 28 20 66 47 82 61 17 14 31 25 32 26 1 0 10 -26 19 -57z m269 -219 c27 -2
57 -3 65 -4 10 0 11 -3 4 -8 -12 -7 -40 -81 -36 -94 1 -5 -2 -8 -6 -8 -5 0
-14 -18 -21 -40 -13 -44 -26 -52 -27 -17 0 12 -12 59 -26 105 -15 45 -21 79
-15 75 6 -4 34 -8 62 -9z m450 -354 c1 -8 5 -25 9 -36 7 -22 6 -22 -96 -17
-57 3 -104 7 -106 8 -1 1 19 16 45 34 26 17 64 45 83 62 l35 31 14 -34 c8 -18
15 -40 16 -48z m321 -203 c2 -2 -10 -37 -59 -162 -15 -36 -16 -38 -16 -12 -1
15 -6 27 -12 27 -5 0 -8 4 -5 9 3 5 -3 37 -14 71 -11 35 -20 66 -20 70 0 7
119 4 126 -3z"/>
<path d="M2441 571 c-5 -3 -34 -71 -65 -151 -32 -80 -63 -158 -71 -175 -7 -16
-16 -41 -20 -55 -4 -14 -11 -29 -15 -35 -4 -5 -13 -28 -20 -50 -7 -22 -16 -44
-20 -50 -4 -5 -10 -18 -13 -27 -6 -17 7 -18 193 -18 l200 0 0 280 c0 154 -3
280 -7 281 -52 4 -155 4 -162 0z"/>
</g>
</svg>
